# xmcd CD database file
#
# Track frame offsets:
#	150
#	17107
#	35362
#	50725
#	70917
#	86020
#	104347
#	122747
#	138805
#	162800
#	186282
#	205725
#	222002
#
# Disc length: 3144 seconds
#
# Revision: 2
# Processed by: cddbd v1.5.1PL0 Copyright (c) Steve Scherf et al.
# Submitted via: CDex 1.51
#
DISCID=b30c460d
DTITLE=東京ディズニーランド - Club Disney Super Dancin' Mania -Mega Beat-
DYEAR=2000
DGENRE=Dance
TTITLE0=Club Disney
TTITLE1=Night Of Fire (NIKO)
TTITLE2=Boom! Boom! Boom! (Vengaboys)
TTITLE3=How Gee (Black Machine)
TTITLE4=Twilight Zone
TTITLE5=Stayin' Alive
TTITLE6=5,6,7,8 (Steps)
TTITLE7=Macarena (2 Locos In A Room)
TTITLE8=New York City (New YOrk Rappers)
TTITLE9=Fire (Combined)
TTITLE10=Mickey Mouse March (Eurobeat Version) (Domino)
TTITLE11=Super Dancin' Mania
TTITLE12=Mickey Mouse March (Eurobeat Version) - Park Edit - (Domino)
EXTD=YEAR: 2000
EXTT0=
EXTT1=
EXTT2=
EXTT3=
EXTT4=
EXTT5=
EXTT6=
EXTT7=
EXTT8=
EXTT9=
EXTT10=
EXTT11=
EXTT12=
PLAYORDER=
